# Blender v2.74 (sub 0) OBJ File: 'mineshaftmid.blend'
# www.blender.org
mtllib mineshaftmid.mtl
o Cylinder.001
v 0.450000 -1.000000 0.400000
v 0.450000 1.000000 0.400000
v 0.459754 -1.000000 0.400961
v 0.459754 1.000000 0.400961
v 0.469134 -1.000000 0.403806
v 0.469134 1.000000 0.403806
v 0.477778 -1.000000 0.408427
v 0.477778 1.000000 0.408427
v 0.485355 -1.000000 0.414645
v 0.485355 1.000000 0.414645
v 0.491573 -1.000000 0.422222
v 0.491573 1.000000 0.422222
v 0.496194 -1.000000 0.430866
v 0.496194 1.000000 0.430866
v 0.499039 -1.000000 0.440246
v 0.499039 1.000000 0.440246
v 0.500000 -1.000000 0.450000
v 0.500000 1.000000 0.450000
v 0.499039 -1.000000 0.459755
v 0.499039 1.000000 0.459755
v 0.496194 -1.000000 0.469134
v 0.496194 1.000000 0.469134
v 0.491573 -1.000000 0.477779
v 0.491573 1.000000 0.477779
v 0.485355 -1.000000 0.485355
v 0.485355 1.000000 0.485355
v 0.477778 -1.000000 0.491574
v 0.477778 1.000000 0.491574
v 0.469134 -1.000000 0.496194
v 0.469134 1.000000 0.496194
v 0.459754 -1.000000 0.499039
v 0.459754 1.000000 0.499039
v 0.450000 -1.000000 0.500000
v 0.450000 1.000000 0.500000
v 0.440245 -1.000000 0.499039
v 0.440245 1.000000 0.499039
v 0.430866 -1.000000 0.496194
v 0.430866 1.000000 0.496194
v 0.422221 -1.000000 0.491574
v 0.422221 1.000000 0.491574
v 0.414645 -1.000000 0.485355
v 0.414645 1.000000 0.485355
v 0.408426 -1.000000 0.477779
v 0.408426 1.000000 0.477779
v 0.403806 -1.000000 0.469134
v 0.403806 1.000000 0.469134
v 0.400961 -1.000000 0.459755
v 0.400961 1.000000 0.459755
v 0.400000 -1.000000 0.450000
v 0.400000 1.000000 0.450000
v 0.400961 -1.000000 0.440246
v 0.400961 1.000000 0.440246
v 0.403806 -1.000000 0.430866
v 0.403806 1.000000 0.430866
v 0.408427 -1.000000 0.422222
v 0.408427 1.000000 0.422222
v 0.414645 -1.000000 0.414645
v 0.414645 1.000000 0.414645
v 0.422221 -1.000000 0.408427
v 0.422221 1.000000 0.408427
v 0.430866 -1.000000 0.403806
v 0.430866 1.000000 0.403806
v 0.440245 -1.000000 0.400961
v 0.440245 1.000000 0.400961
v -0.450000 -1.000000 -0.500000
v -0.450000 1.000000 -0.500000
v -0.440245 -1.000000 -0.499039
v -0.440245 1.000000 -0.499039
v -0.430866 -1.000000 -0.496194
v -0.430866 1.000000 -0.496194
v -0.422221 -1.000000 -0.491574
v -0.422221 1.000000 -0.491574
v -0.414645 -1.000000 -0.485355
v -0.414645 1.000000 -0.485355
v -0.408427 -1.000000 -0.477779
v -0.408427 1.000000 -0.477779
v -0.403806 -1.000000 -0.469134
v -0.403806 1.000000 -0.469134
v -0.400961 -1.000000 -0.459754
v -0.400961 1.000000 -0.459754
v -0.400000 -1.000000 -0.450000
v -0.400000 1.000000 -0.450000
v -0.400961 -1.000000 -0.440245
v -0.400961 1.000000 -0.440245
v -0.403806 -1.000000 -0.430866
v -0.403806 1.000000 -0.430866
v -0.408427 -1.000000 -0.422221
v -0.408427 1.000000 -0.422221
v -0.414645 -1.000000 -0.414645
v -0.414645 1.000000 -0.414645
v -0.422221 -1.000000 -0.408427
v -0.422221 1.000000 -0.408427
v -0.430866 -1.000000 -0.403806
v -0.430866 1.000000 -0.403806
v -0.440245 -1.000000 -0.400961
v -0.440245 1.000000 -0.400961
v -0.450000 -1.000000 -0.400000
v -0.450000 1.000000 -0.400000
v -0.459755 -1.000000 -0.400961
v -0.459755 1.000000 -0.400961
v -0.469134 -1.000000 -0.403806
v -0.469134 1.000000 -0.403806
v -0.477779 -1.000000 -0.408427
v -0.477779 1.000000 -0.408427
v -0.485355 -1.000000 -0.414645
v -0.485355 1.000000 -0.414645
v -0.491573 -1.000000 -0.422222
v -0.491573 1.000000 -0.422222
v -0.496194 -1.000000 -0.430866
v -0.496194 1.000000 -0.430866
v -0.499039 -1.000000 -0.440246
v -0.499039 1.000000 -0.440246
v -0.500000 -1.000000 -0.450000
v -0.500000 1.000000 -0.450000
v -0.499039 -1.000000 -0.459755
v -0.499039 1.000000 -0.459755
v -0.496194 -1.000000 -0.469134
v -0.496194 1.000000 -0.469134
v -0.491573 -1.000000 -0.477779
v -0.491573 1.000000 -0.477779
v -0.485355 -1.000000 -0.485355
v -0.485355 1.000000 -0.485355
v -0.477778 -1.000000 -0.491574
v -0.477778 1.000000 -0.491574
v -0.469134 -1.000000 -0.496194
v -0.469134 1.000000 -0.496194
v -0.459754 -1.000000 -0.499039
v -0.459754 1.000000 -0.499039
v -0.450000 -1.000000 0.400000
v -0.450000 1.000000 0.400000
v -0.440245 -1.000000 0.400961
v -0.440245 1.000000 0.400961
v -0.430866 -1.000000 0.403806
v -0.430866 1.000000 0.403806
v -0.422221 -1.000000 0.408427
v -0.422221 1.000000 0.408427
v -0.414645 -1.000000 0.414645
v -0.414645 1.000000 0.414645
v -0.408426 -1.000000 0.422221
v -0.408426 1.000000 0.422221
v -0.403806 -1.000000 0.430866
v -0.403806 1.000000 0.430866
v -0.400961 -1.000000 0.440245
v -0.400961 1.000000 0.440245
v -0.400000 -1.000000 0.450000
v -0.400000 1.000000 0.450000
v -0.400961 -1.000000 0.459754
v -0.400961 1.000000 0.459754
v -0.403806 -1.000000 0.469134
v -0.403806 1.000000 0.469134
v -0.408426 -1.000000 0.477778
v -0.408426 1.000000 0.477778
v -0.414645 -1.000000 0.485355
v -0.414645 1.000000 0.485355
v -0.422221 -1.000000 0.491573
v -0.422221 1.000000 0.491573
v -0.430866 -1.000000 0.496194
v -0.430866 1.000000 0.496194
v -0.440245 -1.000000 0.499039
v -0.440245 1.000000 0.499039
v -0.450000 -1.000000 0.500000
v -0.450000 1.000000 0.500000
v -0.459755 -1.000000 0.499039
v -0.459755 1.000000 0.499039
v -0.469134 -1.000000 0.496194
v -0.469134 1.000000 0.496194
v -0.477779 -1.000000 0.491573
v -0.477779 1.000000 0.491573
v -0.485355 -1.000000 0.485355
v -0.485355 1.000000 0.485355
v -0.491573 -1.000000 0.477778
v -0.491573 1.000000 0.477778
v -0.496194 -1.000000 0.469134
v -0.496194 1.000000 0.469134
v -0.499039 -1.000000 0.459754
v -0.499039 1.000000 0.459754
v -0.500000 -1.000000 0.450000
v -0.500000 1.000000 0.450000
v -0.499039 -1.000000 0.440245
v -0.499039 1.000000 0.440245
v -0.496194 -1.000000 0.430866
v -0.496194 1.000000 0.430866
v -0.491573 -1.000000 0.422221
v -0.491573 1.000000 0.422221
v -0.485355 -1.000000 0.414645
v -0.485355 1.000000 0.414645
v -0.477778 -1.000000 0.408426
v -0.477778 1.000000 0.408426
v -0.469134 -1.000000 0.403806
v -0.469134 1.000000 0.403806
v -0.459754 -1.000000 0.400961
v -0.459754 1.000000 0.400961
v 0.450000 -1.000000 -0.500000
v 0.450000 1.000000 -0.500000
v 0.459754 -1.000000 -0.499039
v 0.459754 1.000000 -0.499039
v 0.469134 -1.000000 -0.496194
v 0.469134 1.000000 -0.496194
v 0.477778 -1.000000 -0.491573
v 0.477778 1.000000 -0.491573
v 0.485355 -1.000000 -0.485355
v 0.485355 1.000000 -0.485355
v 0.491573 -1.000000 -0.477778
v 0.491573 1.000000 -0.477778
v 0.496194 -1.000000 -0.469134
v 0.496194 1.000000 -0.469134
v 0.499039 -1.000000 -0.459754
v 0.499039 1.000000 -0.459754
v 0.500000 -1.000000 -0.450000
v 0.500000 1.000000 -0.450000
v 0.499039 -1.000000 -0.440245
v 0.499039 1.000000 -0.440245
v 0.496194 -1.000000 -0.430866
v 0.496194 1.000000 -0.430866
v 0.491573 -1.000000 -0.422221
v 0.491573 1.000000 -0.422221
v 0.485355 -1.000000 -0.414645
v 0.485355 1.000000 -0.414645
v 0.477778 -1.000000 -0.408426
v 0.477778 1.000000 -0.408426
v 0.469134 -1.000000 -0.403806
v 0.469134 1.000000 -0.403806
v 0.459754 -1.000000 -0.400961
v 0.459754 1.000000 -0.400961
v 0.450000 -1.000000 -0.400000
v 0.450000 1.000000 -0.400000
v 0.440245 -1.000000 -0.400961
v 0.440245 1.000000 -0.400961
v 0.430866 -1.000000 -0.403806
v 0.430866 1.000000 -0.403806
v 0.422221 -1.000000 -0.408427
v 0.422221 1.000000 -0.408427
v 0.414645 -1.000000 -0.414645
v 0.414645 1.000000 -0.414645
v 0.408426 -1.000000 -0.422221
v 0.408426 1.000000 -0.422221
v 0.403806 -1.000000 -0.430866
v 0.403806 1.000000 -0.430866
v 0.400961 -1.000000 -0.440245
v 0.400961 1.000000 -0.440245
v 0.400000 -1.000000 -0.450000
v 0.400000 1.000000 -0.450000
v 0.400961 -1.000000 -0.459754
v 0.400961 1.000000 -0.459754
v 0.403806 -1.000000 -0.469134
v 0.403806 1.000000 -0.469134
v 0.408427 -1.000000 -0.477778
v 0.408427 1.000000 -0.477778
v 0.414645 -1.000000 -0.485355
v 0.414645 1.000000 -0.485355
v 0.422221 -1.000000 -0.491573
v 0.422221 1.000000 -0.491573
v 0.430866 -1.000000 -0.496194
v 0.430866 1.000000 -0.496194
v 0.440245 -1.000000 -0.499039
v 0.440245 1.000000 -0.499039
vt 0.659402 0.868002
vt 0.659402 0.206373
vt 0.334314 0.206373
vt 0.334314 0.868002
vt 0.009227 0.206373
vt 0.009227 0.868002
vt 0.400363 0.855289
vt 0.400363 0.219085
vt 0.340159 0.244023
vt 0.340159 0.830351
vt 0.285976 0.280226
vt 0.285976 0.794148
vt 0.239897 0.326304
vt 0.239898 0.748069
vt 0.203694 0.380487
vt 0.203694 0.693887
vt 0.178756 0.440691
vt 0.178757 0.633682
vt 0.166042 0.504603
vt 0.166044 0.569770
vt 0.464273 0.868002
vt 0.464276 0.206372
vt 0.529438 0.868002
vt 0.529441 0.206373
vt 0.593351 0.855289
vt 0.593354 0.219086
vt 0.653555 0.830352
vt 0.653557 0.244023
vt 0.707738 0.794149
vt 0.707741 0.280227
vt 0.753816 0.748070
vt 0.753819 0.326306
vt 0.790020 0.693888
vt 0.790022 0.380488
vt 0.814957 0.633683
vt 0.814960 0.440693
vt 0.827672 0.569771
vt 0.827672 0.504605
vt 0.984490 0.868002
vt 0.984490 0.206373
vt 0.657482 0.866081
vt 0.657482 0.204452
vt 0.332394 0.204452
vt 0.332394 0.866081
vt 0.007306 0.204452
vt 0.007306 0.866081
vt 0.398442 0.853367
vt 0.398443 0.217165
vt 0.338238 0.242103
vt 0.338239 0.828430
vt 0.284056 0.278307
vt 0.284056 0.792227
vt 0.237978 0.324386
vt 0.237978 0.746147
vt 0.201774 0.378569
vt 0.201774 0.691964
vt 0.176837 0.438774
vt 0.176838 0.631759
vt 0.164124 0.502685
vt 0.164125 0.567847
vt 0.164125 0.567851
vt 0.237980 0.746150
vt 0.462358 0.866081
vt 0.462359 0.204451
vt 0.527523 0.866081
vt 0.527524 0.204452
vt 0.591436 0.853368
vt 0.591437 0.217165
vt 0.651640 0.828430
vt 0.651641 0.242104
vt 0.705823 0.792226
vt 0.705824 0.278307
vt 0.751901 0.746147
vt 0.751902 0.324387
vt 0.788104 0.691965
vt 0.788105 0.378569
vt 0.813041 0.631759
vt 0.813042 0.438773
vt 0.825754 0.567847
vt 0.825755 0.502687
vt 0.825755 0.567852
vt 0.751899 0.746151
vt 0.982569 0.866081
vt 0.982569 0.204452
vt 0.669751 0.866081
vt 0.669751 0.204452
vt 0.344663 0.204452
vt 0.344663 0.866081
vt 0.019576 0.204452
vt 0.019576 0.866082
vt 0.410712 0.853369
vt 0.410712 0.217165
vt 0.350508 0.242102
vt 0.350507 0.828431
vt 0.296325 0.278306
vt 0.296325 0.792227
vt 0.250246 0.324384
vt 0.250246 0.746149
vt 0.214043 0.378566
vt 0.214043 0.691966
vt 0.189105 0.438771
vt 0.189106 0.631762
vt 0.176392 0.502683
vt 0.176392 0.567849
vt 0.474624 0.866081
vt 0.474625 0.204452
vt 0.539788 0.866081
vt 0.539790 0.204452
vt 0.603701 0.853368
vt 0.603702 0.217165
vt 0.663906 0.828431
vt 0.663907 0.242103
vt 0.718088 0.792228
vt 0.718089 0.278306
vt 0.764167 0.746149
vt 0.764168 0.324385
vt 0.800370 0.691967
vt 0.800371 0.378568
vt 0.825308 0.631762
vt 0.825309 0.438772
vt 0.838021 0.567850
vt 0.838022 0.502685
vt 0.994839 0.866081
vt 0.994839 0.204452
vt 0.661696 0.864160
vt 0.661696 0.202531
vt 0.336608 0.202531
vt 0.336608 0.864160
vt 0.011520 0.202531
vt 0.011520 0.864160
vt 0.678469 0.849970
vt 0.678469 0.188341
vt 0.353381 0.188341
vt 0.353381 0.849970
vt 0.752857 0.864168
vt 0.752868 0.202539
vt 0.288270 0.276385
vt 0.288269 0.790306
vt 0.242191 0.322463
vt 0.242192 0.744227
vt 0.205988 0.376646
vt 0.205988 0.690045
vt 0.181050 0.436850
vt 0.181052 0.629839
vt 0.168337 0.500763
vt 0.168338 0.565927
vt 0.662325 0.864162
vt 0.662327 0.202532
vt 0.342452 0.826509
vt 0.342455 0.240181
vt 0.402657 0.851448
vt 0.402659 0.215244
vt 0.466569 0.864161
vt 0.466572 0.202530
vt 0.531734 0.864161
vt 0.531737 0.202531
vt 0.138121 0.202529
vt 0.138117 0.864158
vt 0.595647 0.851448
vt 0.595650 0.215243
vt 0.655851 0.826510
vt 0.655854 0.240183
vt 0.245446 0.202528
vt 0.245440 0.864157
vt 0.710034 0.790307
vt 0.710037 0.276386
vt 0.756112 0.744228
vt 0.756114 0.322465
vt 0.317152 0.202534
vt 0.317155 0.864164
vt 0.792316 0.690047
vt 0.792317 0.376648
vt 0.817253 0.629841
vt 0.817255 0.436851
vt 0.829966 0.565929
vt 0.829968 0.500765
vt 0.738229 0.849974
vt 0.738234 0.188345
vt 0.273638 0.308273
vt 0.273640 0.730039
vt 0.986784 0.864160
vt 0.986784 0.202531
vn 0.098000 0.000000 -0.995200
vn 0.290300 0.000000 -0.956900
vn 0.471400 0.000000 -0.881900
vn 0.634400 0.000000 -0.773000
vn 0.773000 0.000000 -0.634400
vn 0.881900 0.000000 -0.471400
vn 0.956900 0.000000 -0.290300
vn 0.995200 0.000000 -0.098000
vn 0.995200 0.000000 0.098000
vn 0.956900 0.000000 0.290300
vn 0.881900 0.000000 0.471400
vn 0.773000 0.000000 0.634400
vn 0.634400 0.000000 0.773000
vn 0.471400 0.000000 0.881900
vn 0.290300 0.000000 0.956900
vn 0.098000 0.000000 0.995200
vn -0.098000 0.000000 0.995200
vn -0.290300 0.000000 0.956900
vn -0.471400 0.000000 0.881900
vn -0.634400 0.000000 0.773000
vn -0.773000 0.000000 0.634400
vn -0.881900 0.000000 0.471400
vn -0.956900 0.000000 0.290300
vn -0.995200 0.000000 0.098000
vn -0.995200 0.000000 -0.098000
vn -0.956900 0.000000 -0.290300
vn -0.881900 0.000000 -0.471400
vn -0.773000 0.000000 -0.634400
vn -0.634400 0.000000 -0.773000
vn -0.471400 0.000000 -0.881900
vn 0.000000 1.000000 0.000000
vn -0.098000 0.000000 -0.995200
vn -0.290300 0.000000 -0.956900
vn 0.000000 -1.000000 0.000000
usemtl None
s off
f 1/1/1 2/2/1 4/3/1 3/4/1
f 3/4/2 4/3/2 6/5/2 5/6/2
f 5/7/3 6/8/3 8/9/3 7/10/3
f 7/10/4 8/9/4 10/11/4 9/12/4
f 9/12/5 10/11/5 12/13/5 11/14/5
f 11/14/6 12/13/6 14/15/6 13/16/6
f 13/16/7 14/15/7 16/17/7 15/18/7
f 15/18/8 16/17/8 18/19/8 17/20/8
f 17/20/9 18/19/9 20/20/9 19/19/9
f 19/19/10 20/20/10 22/18/10 21/17/10
f 21/17/11 22/18/11 24/16/11 23/15/11
f 23/15/12 24/16/12 26/14/12 25/13/12
f 25/13/13 26/14/13 28/12/13 27/11/13
f 27/11/14 28/12/14 30/10/14 29/9/14
f 29/9/15 30/10/15 32/7/15 31/8/15
f 31/8/16 32/7/16 34/21/16 33/22/16
f 33/22/17 34/21/17 36/23/17 35/24/17
f 35/24/18 36/23/18 38/25/18 37/26/18
f 37/26/19 38/25/19 40/27/19 39/28/19
f 39/28/20 40/27/20 42/29/20 41/30/20
f 41/30/21 42/29/21 44/31/21 43/32/21
f 43/32/22 44/31/22 46/33/22 45/34/22
f 45/34/23 46/33/23 48/35/23 47/36/23
f 47/36/24 48/35/24 50/37/24 49/38/24
f 49/38/25 50/37/25 52/38/25 51/37/25
f 51/37/26 52/38/26 54/36/26 53/35/26
f 53/35/27 54/36/27 56/34/27 55/33/27
f 55/33/28 56/34/28 58/32/28 57/31/28
f 57/31/29 58/32/29 60/30/29 59/29/29
f 59/29/30 60/30/30 62/28/30 61/27/30
f 4/3/31 2/2/31 64/26/31 62/28/31 60/30/31 58/32/31 56/34/31 54/36/31 52/38/31 50/37/31 48/35/31 46/33/31 44/31/31 42/29/31 40/27/31 38/25/31 36/23/31 34/21/31 32/7/31 30/10/31 28/12/31 26/14/31 24/16/31 22/18/31 20/20/31 18/19/31 16/17/31 14/15/31 12/13/31 10/11/31 8/9/31 6/8/31
f 63/39/32 64/40/32 2/2/32 1/1/32
f 61/27/33 62/28/33 64/40/33 63/25/33
f 1/1/34 3/4/34 5/7/34 7/10/34 9/12/34 11/14/34 13/16/34 15/18/34 17/20/34 19/19/34 21/17/34 23/15/34 25/13/34 27/11/34 29/9/34 31/8/34 33/22/34 35/24/34 37/26/34 39/28/34 41/30/34 43/32/34 45/34/34 47/36/34 49/38/34 51/37/34 53/35/34 55/33/34 57/31/34 59/29/34 61/27/34 63/25/34
f 65/41/1 66/42/1 68/43/1 67/44/1
f 67/44/2 68/43/2 70/45/2 69/46/2
f 69/47/3 70/48/3 72/49/3 71/50/3
f 71/50/4 72/49/4 74/51/4 73/52/4
f 73/52/5 74/51/5 76/53/5 75/54/5
f 75/54/6 76/53/6 78/55/6 77/56/6
f 77/56/7 78/55/7 80/57/7 79/58/7
f 79/58/8 80/57/8 82/59/8 81/60/8
f 81/60/9 82/59/9 84/61/9 83/59/9
f 83/59/10 84/61/10 86/58/10 85/57/10
f 85/57/11 86/58/11 88/56/11 87/55/11
f 87/55/12 88/56/12 90/62/12 89/53/12
f 89/53/13 90/62/13 92/52/13 91/51/13
f 91/51/14 92/52/14 94/50/14 93/49/14
f 93/49/15 94/50/15 96/47/15 95/48/15
f 95/48/16 96/47/16 98/63/16 97/64/16
f 97/64/17 98/63/17 100/65/17 99/66/17
f 99/66/18 100/65/18 102/67/18 101/68/18
f 101/68/19 102/67/19 104/69/19 103/70/19
f 103/70/20 104/69/20 106/71/20 105/72/20
f 105/72/21 106/71/21 108/73/21 107/74/21
f 107/74/22 108/73/22 110/75/22 109/76/22
f 109/76/23 110/75/23 112/77/23 111/78/23
f 111/78/24 112/77/24 114/79/24 113/80/24
f 113/80/25 114/79/25 116/80/25 115/81/25
f 115/81/26 116/80/26 118/78/26 117/77/26
f 117/77/27 118/78/27 120/76/27 119/75/27
f 119/75/28 120/76/28 122/74/28 121/82/28
f 121/82/29 122/74/29 124/72/29 123/71/29
f 123/71/30 124/72/30 126/70/30 125/69/30
f 68/43/31 66/42/31 128/68/31 126/70/31 124/72/31 122/74/31 120/76/31 118/78/31 116/80/31 114/79/31 112/77/31 110/75/31 108/73/31 106/71/31 104/69/31 102/67/31 100/65/31 98/63/31 96/47/31 94/50/31 92/52/31 90/62/31 88/56/31 86/58/31 84/61/31 82/59/31 80/57/31 78/55/31 76/53/31 74/51/31 72/49/31 70/48/31
f 127/83/32 128/84/32 66/42/32 65/41/32
f 125/69/33 126/70/33 128/84/33 127/67/33
f 65/41/34 67/44/34 69/47/34 71/50/34 73/52/34 75/54/34 77/56/34 79/58/34 81/60/34 83/59/34 85/57/34 87/55/34 89/53/34 91/51/34 93/49/34 95/48/34 97/64/34 99/66/34 101/68/34 103/70/34 105/72/34 107/74/34 109/76/34 111/78/34 113/80/34 115/81/34 117/77/34 119/75/34 121/82/34 123/71/34 125/69/34 127/67/34
f 129/85/1 130/86/1 132/87/1 131/88/1
f 131/88/2 132/87/2 134/89/2 133/90/2
f 133/91/3 134/92/3 136/93/3 135/94/3
f 135/94/4 136/93/4 138/95/4 137/96/4
f 137/96/5 138/95/5 140/97/5 139/98/5
f 139/98/6 140/97/6 142/99/6 141/100/6
f 141/100/7 142/99/7 144/101/7 143/102/7
f 143/102/8 144/101/8 146/103/8 145/104/8
f 145/104/9 146/103/9 148/104/9 147/103/9
f 147/103/10 148/104/10 150/102/10 149/101/10
f 149/101/11 150/102/11 152/100/11 151/99/11
f 151/99/12 152/100/12 154/98/12 153/97/12
f 153/97/13 154/98/13 156/96/13 155/95/13
f 155/95/14 156/96/14 158/94/14 157/93/14
f 157/93/15 158/94/15 160/91/15 159/92/15
f 159/92/16 160/91/16 162/105/16 161/106/16
f 161/106/17 162/105/17 164/107/17 163/108/17
f 163/108/18 164/107/18 166/109/18 165/110/18
f 165/110/19 166/109/19 168/111/19 167/112/19
f 167/112/20 168/111/20 170/113/20 169/114/20
f 169/114/21 170/113/21 172/115/21 171/116/21
f 171/116/22 172/115/22 174/117/22 173/118/22
f 173/118/23 174/117/23 176/119/23 175/120/23
f 175/120/24 176/119/24 178/121/24 177/122/24
f 177/122/25 178/121/25 180/122/25 179/121/25
f 179/121/26 180/122/26 182/120/26 181/119/26
f 181/119/27 182/120/27 184/118/27 183/117/27
f 183/117/28 184/118/28 186/116/28 185/115/28
f 185/115/29 186/116/29 188/114/29 187/113/29
f 187/113/30 188/114/30 190/112/30 189/111/30
f 132/87/31 130/86/31 192/110/31 190/112/31 188/114/31 186/116/31 184/118/31 182/120/31 180/122/31 178/121/31 176/119/31 174/117/31 172/115/31 170/113/31 168/111/31 166/109/31 164/107/31 162/105/31 160/91/31 158/94/31 156/96/31 154/98/31 152/100/31 150/102/31 148/104/31 146/103/31 144/101/31 142/99/31 140/97/31 138/95/31 136/93/31 134/92/31
f 191/123/32 192/124/32 130/86/32 129/85/32
f 189/111/33 190/112/33 192/124/33 191/109/33
f 129/85/34 131/88/34 133/91/34 135/94/34 137/96/34 139/98/34 141/100/34 143/102/34 145/104/34 147/103/34 149/101/34 151/99/34 153/97/34 155/95/34 157/93/34 159/92/34 161/106/34 163/108/34 165/110/34 167/112/34 169/114/34 171/116/34 173/118/34 175/120/34 177/122/34 179/121/34 181/119/34 183/117/34 185/115/34 187/113/34 189/111/34 191/109/34
f 193/125/1 194/126/1 196/127/1 195/128/1
f 195/128/2 196/127/2 198/129/2 197/130/2
f 197/131/3 198/132/3 200/133/3 199/134/3
f 199/135/4 200/136/4 202/137/4 201/138/4
f 201/138/5 202/137/5 204/139/5 203/140/5
f 203/140/6 204/139/6 206/141/6 205/142/6
f 205/142/7 206/141/7 208/143/7 207/144/7
f 207/144/8 208/143/8 210/145/8 209/146/8
f 209/146/9 210/145/9 212/146/9 211/145/9
f 211/145/10 212/146/10 214/144/10 213/143/10
f 213/143/11 214/144/11 216/147/11 215/148/11
f 215/141/12 216/142/12 218/140/12 217/139/12
f 217/139/13 218/140/13 220/138/13 219/137/13
f 219/137/14 220/138/14 222/149/14 221/150/14
f 221/150/15 222/149/15 224/151/15 223/152/15
f 223/152/16 224/151/16 226/153/16 225/154/16
f 225/154/17 226/153/17 228/155/17 227/156/17
f 227/157/18 228/158/18 230/159/18 229/160/18
f 229/160/19 230/159/19 232/161/19 231/162/19
f 231/163/20 232/164/20 234/165/20 233/166/20
f 233/166/21 234/165/21 236/167/21 235/168/21
f 235/169/22 236/170/22 238/171/22 237/172/22
f 237/172/23 238/171/23 240/173/23 239/174/23
f 239/174/24 240/173/24 242/175/24 241/176/24
f 241/176/25 242/175/25 244/176/25 243/175/25
f 243/175/26 244/176/26 246/174/26 245/173/26
f 245/173/27 246/174/27 248/172/27 247/171/27
f 247/177/28 248/178/28 250/179/28 249/180/28
f 249/167/29 250/168/29 252/166/29 251/165/29
f 251/165/30 252/166/30 254/162/30 253/161/30
f 196/127/31 194/126/31 256/160/31 254/162/31 252/166/31 250/168/31 248/172/31 246/174/31 244/176/31 242/175/31 240/173/31 238/171/31 236/167/31 234/165/31 232/161/31 230/159/31 228/155/31 226/153/31 224/151/31 222/149/31 220/138/31 218/140/31 216/142/31 214/144/31 212/146/31 210/145/31 208/143/31 206/141/31 204/139/31 202/137/31 200/150/31 198/152/31
f 255/181/32 256/182/32 194/126/32 193/125/32
f 253/161/33 254/162/33 256/160/33 255/159/33
f 193/125/34 195/128/34 197/151/34 199/149/34 201/138/34 203/140/34 205/142/34 207/144/34 209/146/34 211/145/34 213/143/34 215/141/34 217/139/34 219/137/34 221/150/34 223/152/34 225/154/34 227/156/34 229/160/34 231/162/34 233/166/34 235/168/34 237/172/34 239/174/34 241/176/34 243/175/34 245/173/34 247/171/34 249/167/34 251/165/34 253/161/34 255/159/34
