# Blender v2.74 (sub 0) OBJ File: 'mineshafttop.blend'
# www.blender.org
mtllib mineshafttop.mtl
o Cube
v -0.500000 0.400000 0.500000
v -0.500000 0.500000 0.500000
v -0.500000 0.400000 -0.500000
v -0.500000 0.500000 -0.500000
v 0.500000 0.400000 0.500000
v 0.500000 0.500000 0.500000
v 0.500000 0.400000 -0.500000
v 0.500000 0.500000 -0.500000
v 0.500000 -0.500000 0.500000
v -0.500000 -0.500000 0.500000
v -0.500000 -0.500000 -0.500000
v -0.452031 -0.500000 -0.000000
v -0.443345 -0.500000 0.088186
v -0.417622 -0.500000 0.172984
v -0.375850 -0.500000 0.251135
v -0.319634 -0.500000 0.319634
v -0.251135 -0.500000 0.375850
v -0.172985 -0.500000 0.417622
v -0.088187 -0.500000 0.443345
v -0.000000 -0.500000 0.452031
v 0.088187 -0.500000 0.443345
v 0.172985 -0.500000 0.417622
v 0.251135 -0.500000 0.375850
v 0.319634 -0.500000 0.319634
v 0.375850 -0.500000 0.251135
v 0.417622 -0.500000 0.172985
v 0.443345 -0.500000 0.088187
v 0.452031 -0.500000 -0.000000
v 0.500000 -0.500000 -0.500000
v 0.443345 -0.500000 -0.088187
v 0.417622 -0.500000 -0.172985
v 0.375850 -0.500000 -0.251135
v 0.319634 -0.500000 -0.319634
v 0.251135 -0.500000 -0.375850
v 0.172985 -0.500000 -0.417622
v 0.088187 -0.500000 -0.443345
v 0.000000 -0.500000 -0.452031
v -0.088186 -0.500000 -0.443345
v -0.172984 -0.500000 -0.417622
v -0.251134 -0.500000 -0.375850
v -0.319634 -0.500000 -0.319634
v -0.375850 -0.500000 -0.251135
v -0.417622 -0.500000 -0.172985
v -0.443345 -0.500000 -0.088187
v 0.500000 0.400000 -0.499999
v -0.500000 0.400000 -0.500000
v 0.499999 0.400000 0.500000
v -0.500000 0.400000 0.500000
v -0.000000 0.400000 0.452031
v -0.088187 0.400000 0.443345
v -0.172985 0.400000 0.417622
v -0.251135 0.400000 0.375850
v -0.319634 0.400000 0.319634
v -0.375850 0.400000 0.251135
v -0.417622 0.400000 0.172984
v -0.443345 0.400000 0.088186
v -0.452031 0.400000 -0.000000
v -0.443345 0.400000 -0.088187
v -0.417622 0.400000 -0.172985
v -0.375850 0.400000 -0.251135
v -0.319634 0.400000 -0.319634
v -0.251134 0.400000 -0.375850
v -0.172984 0.400000 -0.417622
v -0.088186 0.400000 -0.443345
v 0.000000 0.400000 -0.452031
v 0.088187 0.400000 -0.443345
v 0.172985 0.400000 -0.417622
v 0.251135 0.400000 -0.375850
v 0.319634 0.400000 -0.319634
v 0.375850 0.400000 -0.251135
v 0.417622 0.400000 -0.172985
v 0.443345 0.400000 -0.088187
v 0.452031 0.400000 -0.000000
v 0.443345 0.400000 0.088187
v 0.417622 0.400000 0.172985
v 0.375850 0.400000 0.251135
v 0.319634 0.400000 0.319634
v 0.251135 0.400000 0.375850
v 0.172985 0.400000 0.417622
v 0.088187 0.400000 0.443345
vt 0.000524 0.999528
vt 0.000524 0.000472
vt 0.124476 0.000472
vt 0.124476 0.999528
vt 0.000569 0.000408
vt 0.999431 0.000409
vt 0.999431 0.124592
vt 0.000569 0.124592
vt 1.000206 0.000088
vt 1.000206 0.999912
vt 0.874794 0.999912
vt 0.874794 0.000088
vt 0.999743 0.124290
vt 0.000257 0.124290
vt 0.000257 0.000711
vt 0.999743 0.000710
vt 0.000069 0.999931
vt 0.000069 0.000069
vt 0.999931 0.000069
vt 0.999931 0.999931
vt 0.999844 0.000533
vt 0.999844 0.999467
vt 0.000155 0.999467
vt 0.000155 0.000533
vt 0.999104 0.999103
vt 0.942550 0.588029
vt 0.951221 0.500000
vt 0.000897 0.000897
vt 0.057450 0.411971
vt 0.048780 0.500000
vt 0.000825 0.999175
vt 0.000825 0.000825
vt 0.999175 0.000825
vt 0.999175 0.999175
vt 0.999411 0.000589
vt 0.999411 0.999411
vt 0.000589 0.999411
vt 0.000590 0.000589
vt 0.999079 0.000920
vt 0.000921 0.999080
vt 0.411894 0.942938
vt 0.500000 0.951615
vt 0.999541 0.000459
vt 0.588106 0.057062
vt 0.500000 0.048384
vt 0.499597 0.000426
vt 0.562903 0.000426
vt 0.562903 0.999574
vt 0.499597 0.999574
vt 0.437528 0.000660
vt 0.499972 0.000660
vt 0.499972 0.999340
vt 0.437528 0.999340
vt 0.562382 0.001073
vt 0.625118 0.001073
vt 0.625118 0.998926
vt 0.562382 0.998927
vt 0.374663 -0.000004
vt 0.437838 -0.000004
vt 0.437837 1.000004
vt 0.374662 1.000004
vt 0.624879 0.001809
vt 0.687621 0.001809
vt 0.687621 0.998191
vt 0.624879 0.998191
vt 0.311995 0.000746
vt 0.375505 0.000746
vt 0.375505 0.999253
vt 0.311995 0.999253
vt 0.687351 -0.000256
vt 0.750149 -0.000256
vt 0.750149 1.000256
vt 0.687351 1.000256
vt 0.250026 0.001182
vt 0.312474 0.001182
vt 0.312474 0.998818
vt 0.250026 0.998818
vt 0.749460 0.001773
vt 0.813040 0.001773
vt 0.813040 0.998227
vt 0.749460 0.998227
vt 0.187805 0.001911
vt 0.249695 0.001911
vt 0.249695 0.998089
vt 0.187805 0.998089
vt 0.812041 0.000078
vt 0.875459 0.000078
vt 0.875459 0.999922
vt 0.812041 0.999922
vt 0.124560 0.000058
vt 0.187939 0.000058
vt 0.187939 0.999942
vt 0.124561 0.999942
vt 0.874241 0.000548
vt 0.938259 0.000548
vt 0.938259 0.999452
vt 0.874241 0.999452
vt 0.062355 0.001054
vt 0.125145 0.001054
vt 0.125145 0.998946
vt 0.062355 0.998946
vt 0.937289 0.000121
vt 0.937289 0.999879
vt -0.000093 0.000369
vt 0.062593 0.000369
vt 0.062593 0.999631
vt -0.000093 0.999631
vt -0.000140 -0.000024
vt 0.062640 -0.000024
vt 0.062640 1.000024
vt -0.000140 1.000024
vt 0.937007 0.000968
vt 1.000493 0.000968
vt 1.000493 0.999031
vt 0.937007 0.999031
vt 0.061766 0.000107
vt 0.125734 0.000107
vt 0.125734 0.999893
vt 0.061766 0.999893
vt 0.874970 -0.000003
vt 0.937530 -0.000003
vt 0.937530 1.000003
vt 0.874970 1.000003
vt 0.124757 -0.000255
vt 0.187743 -0.000255
vt 0.187743 1.000255
vt 0.124757 1.000255
vt 0.812582 0.000529
vt 0.874918 0.000529
vt 0.874918 0.999471
vt 0.812582 0.999471
vt 0.186836 0.001320
vt 0.250664 0.001320
vt 0.250664 0.998680
vt 0.186836 0.998680
vt 0.750818 0.001280
vt 0.811682 0.001280
vt 0.811682 0.998720
vt 0.750818 0.998720
vt 0.249343 0.000267
vt 0.313157 0.000267
vt 0.313157 0.999733
vt 0.249342 0.999733
vt 0.688209 0.001231
vt 0.749291 0.001231
vt 0.749291 0.998769
vt 0.688209 0.998769
vt 0.312328 0.001886
vt 0.375172 0.001886
vt 0.375172 0.998114
vt 0.312328 0.998114
vt 0.625978 0.001090
vt 0.686522 0.001090
vt 0.686522 0.998910
vt 0.625978 0.998910
vt 0.374333 0.000453
vt 0.438167 0.000453
vt 0.438167 0.999547
vt 0.374333 0.999547
vt 0.563435 0.000564
vt 0.624065 0.000564
vt 0.624065 0.999436
vt 0.563435 0.999436
vt 0.437003 0.000383
vt 0.500497 0.000383
vt 0.500497 0.999617
vt 0.437003 0.999617
vt 0.500170 0.000455
vt 0.562330 0.000455
vt 0.562330 0.999545
vt 0.500170 0.999545
vt 0.942938 0.588105
vt 0.951616 0.500000
vt 0.999541 0.999541
vt 0.048385 0.500000
vt 0.917239 0.672825
vt 0.057062 0.588106
vt 0.875505 0.750904
vt 0.082762 0.672826
vt 0.819341 0.819340
vt 0.124496 0.750904
vt 0.750905 0.875504
vt 0.180660 0.819340
vt 0.672826 0.917238
vt 0.249096 0.875505
vt 0.588106 0.942938
vt 0.327174 0.917238
vt 0.057062 0.411894
vt 0.082762 0.327174
vt 0.942938 0.411894
vt 0.124496 0.249096
vt 0.917239 0.327174
vt 0.180660 0.180659
vt 0.875505 0.249096
vt 0.249096 0.124495
vt 0.819341 0.180660
vt 0.327174 0.082761
vt 0.750904 0.124495
vt 0.411894 0.057062
vt 0.672826 0.082762
vt 0.588029 0.057450
vt 0.500000 0.048780
vt 0.500000 0.951220
vt 0.672675 0.083127
vt 0.588029 0.942551
vt 0.750685 0.124824
vt 0.672675 0.916874
vt 0.819061 0.180939
vt 0.750685 0.875176
vt 0.875176 0.249316
vt 0.819061 0.819061
vt 0.916873 0.327325
vt 0.875176 0.750685
vt 0.942551 0.411971
vt 0.916873 0.672675
vt 0.411971 0.942550
vt 0.327325 0.916873
vt 0.411971 0.057450
vt 0.249315 0.875176
vt 0.327325 0.083127
vt 0.180939 0.819061
vt 0.249316 0.124824
vt 0.124824 0.750684
vt 0.180939 0.180939
vt 0.083126 0.672674
vt 0.124824 0.249316
vt 0.057450 0.588028
vt 0.083127 0.327325
vn -1.000000 0.000000 0.000000
vn 0.000000 0.000000 -1.000000
vn 1.000000 0.000000 0.000000
vn 0.000000 0.000000 1.000000
vn 0.000000 -1.000000 0.000000
vn 0.000000 1.000000 0.000000
vn -0.098000 0.000000 0.995200
vn 0.098000 0.000000 0.995200
vn -0.290300 0.000000 0.956900
vn 0.290300 0.000000 0.956900
vn -0.471400 0.000000 0.881900
vn 0.471400 0.000000 0.881900
vn -0.634400 0.000000 0.773000
vn 0.634400 0.000000 0.773000
vn -0.773000 0.000000 0.634400
vn 0.773000 0.000000 0.634400
vn -0.881900 0.000000 0.471400
vn 0.881900 0.000000 0.471400
vn -0.956900 0.000000 0.290300
vn 0.956900 0.000000 0.290300
vn -0.995200 0.000000 0.098000
vn 0.995200 0.000000 0.098000
vn -0.995200 0.000000 -0.098000
vn 0.995200 0.000000 -0.098000
vn -0.956900 0.000000 -0.290300
vn 0.956900 0.000000 -0.290300
vn -0.881900 0.000000 -0.471400
vn 0.881900 0.000000 -0.471400
vn -0.773000 0.000000 -0.634400
vn 0.773000 0.000000 -0.634400
vn -0.634400 0.000000 -0.773000
vn 0.634400 0.000000 -0.773000
vn -0.471400 0.000000 -0.881900
vn 0.471400 0.000000 -0.881900
vn -0.290300 0.000000 -0.956900
vn 0.290300 0.000000 -0.956900
vn -0.098000 0.000000 -0.995200
vn 0.098000 0.000000 -0.995200
usemtl Material
s off
f 2/1/1 4/2/1 3/3/1 1/4/1
f 4/5/2 8/6/2 7/7/2 3/8/2
f 8/9/3 6/10/3 5/11/3 7/12/3
f 6/13/4 2/14/4 1/15/4 5/16/4
f 1/17/5 3/18/5 7/19/5 5/20/5
f 6/21/6 8/22/6 4/23/6 2/24/6
f 10/25/5 19/26/5 20/27/5
f 29/28/5 36/29/5 37/30/5
f 45/31/2 29/32/2 11/33/2 46/34/2
f 29/35/3 45/36/3 47/37/3 9/38/3
f 9/37/4 47/38/4 48/35/4 10/36/4
f 10/39/1 48/25/1 46/40/1 11/28/1
f 56/41/6 57/42/6 48/1/6
f 45/43/6 72/44/6 73/45/6
f 37/46/7 36/47/7 66/48/7 65/49/7
f 38/50/8 37/51/8 65/52/8 64/53/8
f 36/54/9 35/55/9 67/56/9 66/57/9
f 39/58/10 38/59/10 64/60/10 63/61/10
f 35/62/11 34/63/11 68/64/11 67/65/11
f 40/66/12 39/67/12 63/68/12 62/69/12
f 34/70/13 33/71/13 69/72/13 68/73/13
f 41/74/14 40/75/14 62/76/14 61/77/14
f 33/78/15 32/79/15 70/80/15 69/81/15
f 42/82/16 41/83/16 61/84/16 60/85/16
f 32/86/17 31/87/17 71/88/17 70/89/17
f 43/90/18 42/91/18 60/92/18 59/93/18
f 31/94/19 30/95/19 72/96/19 71/97/19
f 44/98/20 43/99/20 59/100/20 58/101/20
f 30/102/21 28/9/21 73/10/21 72/103/21
f 12/104/22 44/105/22 58/106/22 57/107/22
f 28/108/23 27/109/23 74/110/23 73/111/23
f 13/112/24 12/113/24 57/114/24 56/115/24
f 27/116/25 26/117/25 75/118/25 74/119/25
f 14/120/26 13/121/26 56/122/26 55/123/26
f 26/124/27 25/125/27 76/126/27 75/127/27
f 15/128/28 14/129/28 55/130/28 54/131/28
f 25/132/29 24/133/29 77/134/29 76/135/29
f 16/136/30 15/137/30 54/138/30 53/139/30
f 24/140/31 23/141/31 78/142/31 77/143/31
f 17/144/32 16/145/32 53/146/32 52/147/32
f 23/148/33 22/149/33 79/150/33 78/151/33
f 18/152/34 17/153/34 52/154/34 51/155/34
f 22/156/35 21/157/35 80/158/35 79/159/35
f 19/160/36 18/161/36 51/162/36 50/163/36
f 21/164/37 20/165/37 49/166/37 80/167/37
f 20/168/38 19/169/38 50/170/38 49/171/38
f 64/172/6 65/173/6 46/174/6
f 48/1/6 47/2/6 49/175/6
f 63/176/6 64/172/6 46/174/6
f 48/1/6 49/175/6 50/177/6
f 62/178/6 63/176/6 46/174/6
f 48/1/6 50/177/6 51/179/6
f 61/180/6 62/178/6 46/174/6
f 48/1/6 51/179/6 52/181/6
f 60/182/6 61/180/6 46/174/6
f 48/1/6 52/181/6 53/183/6
f 59/184/6 60/182/6 46/174/6
f 48/1/6 53/183/6 54/185/6
f 58/186/6 59/184/6 46/174/6
f 48/1/6 54/185/6 55/187/6
f 57/42/6 58/186/6 46/174/6
f 48/1/6 55/187/6 56/41/6
f 57/42/6 46/174/6 48/1/6
f 80/188/6 49/175/6 47/2/6
f 45/43/6 46/174/6 65/173/6
f 79/189/6 80/188/6 47/2/6
f 45/43/6 65/173/6 66/190/6
f 78/191/6 79/189/6 47/2/6
f 45/43/6 66/190/6 67/192/6
f 77/193/6 78/191/6 47/2/6
f 45/43/6 67/192/6 68/194/6
f 76/195/6 77/193/6 47/2/6
f 45/43/6 68/194/6 69/196/6
f 75/197/6 76/195/6 47/2/6
f 45/43/6 69/196/6 70/198/6
f 74/199/6 75/197/6 47/2/6
f 45/43/6 70/198/6 71/200/6
f 73/45/6 74/199/6 47/2/6
f 45/43/6 71/200/6 72/44/6
f 73/45/6 47/2/6 45/43/6
f 27/201/5 28/202/5 9/39/5
f 10/25/5 11/40/5 12/203/5
f 26/204/5 27/201/5 9/39/5
f 10/25/5 12/203/5 13/205/5
f 25/206/5 26/204/5 9/39/5
f 10/25/5 13/205/5 14/207/5
f 24/208/5 25/206/5 9/39/5
f 10/25/5 14/207/5 15/209/5
f 23/210/5 24/208/5 9/39/5
f 10/25/5 15/209/5 16/211/5
f 22/212/5 23/210/5 9/39/5
f 10/25/5 16/211/5 17/213/5
f 21/214/5 22/212/5 9/39/5
f 10/25/5 17/213/5 18/215/5
f 20/27/5 21/214/5 9/39/5
f 10/25/5 18/215/5 19/26/5
f 20/27/5 9/39/5 10/25/5
f 44/216/5 12/203/5 11/40/5
f 29/28/5 9/39/5 28/202/5
f 43/217/5 44/216/5 11/40/5
f 29/28/5 28/202/5 30/218/5
f 42/219/5 43/217/5 11/40/5
f 29/28/5 30/218/5 31/220/5
f 41/221/5 42/219/5 11/40/5
f 29/28/5 31/220/5 32/222/5
f 40/223/5 41/221/5 11/40/5
f 29/28/5 32/222/5 33/224/5
f 39/225/5 40/223/5 11/40/5
f 29/28/5 33/224/5 34/226/5
f 38/227/5 39/225/5 11/40/5
f 29/28/5 34/226/5 35/228/5
f 37/30/5 38/227/5 11/40/5
f 29/28/5 35/228/5 36/29/5
f 37/30/5 11/40/5 29/28/5
