# Blender v2.74 (sub 0) OBJ File: 'twobymineshaft.blend'
# www.blender.org
mtllib twobymineshaft.mtl
o Cube
v 0.437167 0.499610 -0.437500
v 0.499667 0.499610 -0.437500
v 0.437167 0.499610 -0.500000
v 0.499667 0.499610 -0.500000
v 0.437167 -0.500390 -0.437500
v 0.499667 -0.500390 -0.437500
v 0.437167 -0.500390 -0.500000
v 0.499667 -0.500390 -0.500000
v -0.500333 0.499610 0.500000
v -0.500333 0.499610 -0.500000
v -0.500333 -0.500390 -0.500000
v -0.500333 -0.500389 0.500000
v 0.499666 0.499611 0.499999
v 0.499667 -0.500389 0.500000
v 0.499667 0.499610 0.437500
v 0.316769 0.499610 0.419486
v 0.140901 0.499610 0.366137
v -0.021181 0.499610 0.279503
v -0.163246 0.499610 0.162913
v -0.279836 0.499610 0.020847
v -0.366470 0.499610 -0.141234
v -0.419820 0.499610 -0.317103
v -0.437833 0.499610 -0.500000
v -0.437833 -0.500390 -0.500000
v -0.419820 -0.500389 -0.317103
v -0.366470 -0.500389 -0.141234
v -0.279836 -0.500389 0.020847
v -0.163246 -0.500389 0.162913
v -0.021180 -0.500389 0.279503
v 0.140901 -0.500389 0.366137
v 0.316769 -0.500389 0.419486
v 0.499667 -0.500389 0.437500
v 0.499667 -0.500389 0.437500
vt 0.504790 0.546580
vt 0.495209 0.546580
vt 0.495209 0.515921
vt 0.504790 0.515921
vt 0.503178 0.515361
vt 0.503178 0.547139
vt 0.496822 0.547139
vt 0.496822 0.515361
vt 0.505131 0.547669
vt 0.494869 0.547669
vt 0.494869 0.514831
vt 0.505131 0.514831
vt 0.503195 0.515274
vt 0.503195 0.547226
vt 0.496805 0.547226
vt 0.496805 0.515274
vt 0.503108 0.546789
vt 0.496892 0.546789
vt 0.496892 0.515711
vt 0.503108 0.515711
vt 0.503505 0.548775
vt 0.496495 0.548775
vt 0.496495 0.513725
vt 0.503505 0.513725
vt -0.000258 1.000033
vt -0.000258 -0.000034
vt 1.000258 -0.000034
vt 1.000258 1.000033
vt 1.000413 0.000500
vt 0.779759 0.479224
vt 0.663086 0.337286
vt 0.520437 0.998170
vt 0.479564 0.998170
vt 0.479563 0.001830
vt 0.520436 0.001830
vt 0.662459 0.662038
vt 0.779054 0.520254
vt 0.999561 0.998457
vt 0.479739 0.001657
vt 0.520261 0.001657
vt 0.520261 0.998343
vt 0.479739 0.998343
vt 0.998566 0.999928
vt 0.876434 0.999928
vt 0.876434 0.000072
vt 0.998567 0.000072
vt 0.666667 0.500000
vt 0.666667 1.000000
vt 0.873375 1.000359
vt 0.751625 1.000359
vt 0.751625 -0.000359
vt 0.873375 -0.000359
vt 0.745652 0.999173
vt 0.629347 0.999173
vt 0.629348 0.000827
vt 0.745652 0.000827
vt 0.615808 0.998874
vt 0.509192 0.998874
vt 0.509192 0.001126
vt 0.615808 0.001126
vt 0.492055 0.998577
vt 0.382945 0.998577
vt 0.382945 0.001423
vt 0.492055 0.001423
vt 0.371312 0.998097
vt 0.253688 0.998097
vt 0.253688 0.001903
vt 0.371312 0.001903
vt 0.248423 0.998601
vt 0.126578 0.998601
vt 0.126578 0.001399
vt 0.248422 0.001399
vt 0.123192 0.999095
vt 0.001808 0.999095
vt 0.001808 0.000905
vt 0.123192 0.000905
vt 0.937059 0.000440
vt 0.999561 0.000440
vt 0.182422 0.918102
vt -0.000483 0.998457
vt -0.000483 0.936081
vt 0.919044 0.182974
vt 0.358298 0.864859
vt 0.865692 0.358494
vt 0.520387 0.778397
vt 0.182730 0.080942
vt -0.000297 0.000500
vt 1.000412 0.999604
vt 0.937869 0.999604
vt 0.919842 0.816871
vt -0.000297 0.062944
vt 0.866455 0.641160
vt 0.358723 0.134243
vt 0.520920 0.220800
vn -0.000000 1.000000 0.000000
vn 0.000000 0.000000 -1.000000
vn 0.000000 -1.000000 0.000000
vn -0.000000 0.000000 1.000000
vn -1.000000 -0.000000 0.000000
vn 1.000000 0.000000 0.000000
vn 0.098000 -0.000000 -0.995200
vn -0.658500 0.000000 -0.752600
vn 0.290300 -0.000000 -0.956900
vn 0.471400 -0.000000 -0.881900
vn 0.634400 -0.000000 -0.773000
vn 0.773000 -0.000000 -0.634400
vn 0.881900 -0.000000 -0.471400
vn 0.956900 0.000000 -0.290300
vn 0.995200 0.000000 -0.098000
vn -0.447200 -0.894400 0.000000
usemtl Material
s off
f 2/1/1 4/2/1 3/3/1 1/4/1
f 4/5/2 8/6/2 7/7/2 3/8/2
f 8/9/3 6/10/3 5/11/3 7/12/3
f 6/13/4 2/14/4 1/15/4 5/16/4
f 1/17/5 3/18/5 7/19/5 5/20/5
f 6/21/6 8/22/6 4/23/6 2/24/6
f 9/25/5 10/26/5 11/27/5 12/28/5
f 13/25/4 9/26/4 12/27/4 14/28/4
f 9/29/1 18/30/1 19/31/1
f 24/32/2 11/33/2 10/34/2 23/35/2
f 28/36/3 29/37/3 12/38/3
f 15/39/6 13/40/6 14/41/6 33/42/6
f 32/43/7 31/44/7 16/45/7 15/46/7
f 15/47/8 33/48/8 32/48/8
f 31/49/9 30/50/9 17/51/9 16/52/9
f 30/53/10 29/54/10 18/55/10 17/56/10
f 29/57/11 28/58/11 19/59/11 18/60/11
f 28/61/12 27/62/12 20/63/12 19/64/12
f 27/65/13 26/66/13 21/67/13 20/68/13
f 26/69/14 25/70/14 22/71/14 21/72/14
f 25/73/15 24/74/15 23/75/15 22/76/15
f 32/77/16 33/77/16 14/78/16
f 25/79/3 11/80/3 24/81/3
f 31/82/3 14/78/3 12/38/3
f 12/38/3 11/80/3 25/79/3
f 31/82/3 32/77/3 14/78/3
f 12/38/3 25/79/3 26/83/3
f 30/84/3 31/82/3 12/38/3
f 12/38/3 26/83/3 27/85/3
f 29/37/3 30/84/3 12/38/3
f 12/38/3 27/85/3 28/36/3
f 22/86/1 10/87/1 9/29/1
f 13/88/1 15/89/1 16/90/1
f 22/86/1 23/91/1 10/87/1
f 9/29/1 16/90/1 17/92/1
f 21/93/1 22/86/1 9/29/1
f 9/29/1 13/88/1 16/90/1
f 20/94/1 21/93/1 9/29/1
f 9/29/1 17/92/1 18/30/1
f 19/31/1 20/94/1 9/29/1
