# Blender v2.74 (sub 0) OBJ File: 'mineshaft1.blend'
# www.blender.org
mtllib mineshaft1.mtl
o Cube
v 0.500000 -0.500000 0.500000
v -0.500000 -0.500000 0.500000
v -0.500000 -0.500000 -0.500000
v -0.452031 -0.500000 -0.000000
v -0.443345 -0.500000 0.088186
v -0.417622 -0.500000 0.172984
v -0.375850 -0.500000 0.251135
v -0.319634 -0.500000 0.319634
v -0.251135 -0.500000 0.375850
v -0.172985 -0.500000 0.417622
v -0.088187 -0.500000 0.443345
v -0.000000 -0.500000 0.452031
v 0.088187 -0.500000 0.443345
v 0.172985 -0.500000 0.417622
v 0.251135 -0.500000 0.375850
v 0.319634 -0.500000 0.319634
v 0.375850 -0.500000 0.251135
v 0.417622 -0.500000 0.172985
v 0.443345 -0.500000 0.088187
v 0.452031 -0.500000 -0.000000
v 0.500000 -0.500000 -0.500000
v 0.443345 -0.500000 -0.088187
v 0.417622 -0.500000 -0.172985
v 0.375850 -0.500000 -0.251135
v 0.319634 -0.500000 -0.319634
v 0.251135 -0.500000 -0.375850
v 0.172985 -0.500000 -0.417622
v 0.088187 -0.500000 -0.443345
v 0.000000 -0.500000 -0.452031
v -0.088186 -0.500000 -0.443345
v -0.172984 -0.500000 -0.417622
v -0.251134 -0.500000 -0.375850
v -0.319634 -0.500000 -0.319634
v -0.375850 -0.500000 -0.251135
v -0.417622 -0.500000 -0.172985
v -0.443345 -0.500000 -0.088187
v 0.500000 0.500000 -0.499999
v -0.500000 0.500000 -0.500000
v 0.499999 0.500000 0.500000
v -0.500000 0.500000 0.500000
v -0.000000 0.500000 0.452031
v -0.088187 0.500000 0.443345
v -0.172985 0.500000 0.417622
v -0.251135 0.500000 0.375850
v -0.319634 0.500000 0.319634
v -0.375850 0.500000 0.251135
v -0.417622 0.500000 0.172984
v -0.443345 0.500000 0.088186
v -0.452031 0.500000 -0.000000
v -0.443345 0.500000 -0.088187
v -0.417622 0.500000 -0.172985
v -0.375850 0.500000 -0.251135
v -0.319634 0.500000 -0.319634
v -0.251134 0.500000 -0.375850
v -0.172984 0.500000 -0.417622
v -0.088186 0.500000 -0.443345
v 0.000000 0.500000 -0.452031
v 0.088187 0.500000 -0.443345
v 0.172985 0.500000 -0.417622
v 0.251135 0.500000 -0.375850
v 0.319634 0.500000 -0.319634
v 0.375850 0.500000 -0.251135
v 0.417622 0.500000 -0.172985
v 0.443345 0.500000 -0.088187
v 0.452031 0.500000 -0.000000
v 0.443345 0.500000 0.088187
v 0.417622 0.500000 0.172985
v 0.375850 0.500000 0.251135
v 0.319634 0.500000 0.319634
v 0.251135 0.500000 0.375850
v 0.172985 0.500000 0.417622
v 0.088187 0.500000 0.443345
vt 0.999104 0.000896
vt 0.999104 0.999103
vt 0.000897 0.999103
vt 0.500000 0.951220
vt 0.588029 0.942551
vt 0.672675 0.916874
vt 0.750685 0.875176
vt 0.819061 0.819061
vt 0.875176 0.750685
vt 0.916873 0.672675
vt 0.942550 0.588029
vt 0.951221 0.500000
vt 0.942551 0.411971
vt 0.916873 0.327325
vt 0.875176 0.249316
vt 0.819061 0.180939
vt 0.750685 0.124824
vt 0.672675 0.083127
vt 0.588029 0.057450
vt 0.500000 0.048780
vt 0.000897 0.000897
vt 0.411971 0.057450
vt 0.327325 0.083127
vt 0.249316 0.124824
vt 0.180939 0.180939
vt 0.124824 0.249316
vt 0.083127 0.327325
vt 0.057450 0.411971
vt 0.048780 0.500000
vt 0.057450 0.588028
vt 0.083126 0.672674
vt 0.124824 0.750684
vt 0.180939 0.819061
vt 0.249315 0.875176
vt 0.327325 0.916873
vt 0.411971 0.942550
vt 0.000825 0.999175
vt 0.000825 0.000825
vt 0.999175 0.000825
vt 0.999175 0.999175
vt 0.999411 0.000589
vt 0.999411 0.999411
vt 0.000589 0.999411
vt 0.000590 0.000589
vt 0.000459 0.000459
vt 0.048385 0.500000
vt 0.057062 0.588106
vt 0.082762 0.672826
vt 0.124496 0.750904
vt 0.180660 0.819340
vt 0.249096 0.875505
vt 0.327174 0.917238
vt 0.411894 0.942938
vt 0.500000 0.951615
vt 0.588106 0.942938
vt 0.672826 0.917238
vt 0.750905 0.875504
vt 0.819341 0.819340
vt 0.875505 0.750904
vt 0.917239 0.672825
vt 0.942938 0.588105
vt 0.951616 0.500000
vt 0.999541 0.999541
vt 0.000459 0.999540
vt 0.999541 0.000459
vt 0.942938 0.411894
vt 0.917239 0.327174
vt 0.875505 0.249096
vt 0.819341 0.180660
vt 0.750904 0.124495
vt 0.672826 0.082762
vt 0.588106 0.057062
vt 0.500000 0.048384
vt 0.411894 0.057062
vt 0.327174 0.082761
vt 0.249096 0.124495
vt 0.180660 0.180659
vt 0.124496 0.249096
vt 0.082762 0.327174
vt 0.057062 0.411894
vt -0.000403 0.000426
vt 0.062903 0.000426
vt 0.062903 0.999574
vt -0.000403 0.999574
vt 0.000028 0.000660
vt 0.062472 0.000660
vt 0.062472 0.999340
vt 0.000028 0.999340
vt -0.000118 0.001073
vt 0.062618 0.001073
vt 0.062618 0.998926
vt -0.000118 0.998927
vt -0.000337 -0.000004
vt 0.062837 -0.000004
vt 0.062837 1.000004
vt -0.000338 1.000004
vt -0.000121 0.001809
vt 0.062621 0.001809
vt 0.062621 0.998191
vt -0.000121 0.998191
vt -0.000505 0.000746
vt 0.063005 0.000746
vt 0.063005 0.999253
vt -0.000505 0.999253
vt -0.000149 -0.000256
vt 0.062649 -0.000256
vt 0.062649 1.000256
vt -0.000149 1.000256
vt 0.000026 0.001182
vt 0.062474 0.001182
vt 0.062474 0.998818
vt 0.000026 0.998818
vt -0.000540 0.001773
vt 0.063040 0.001773
vt 0.063040 0.998227
vt -0.000540 0.998227
vt 0.000305 0.001911
vt 0.062195 0.001911
vt 0.062195 0.998089
vt 0.000305 0.998089
vt -0.000459 0.000078
vt 0.062959 0.000078
vt 0.062959 0.999922
vt -0.000459 0.999922
vt -0.000439 0.000058
vt 0.062939 0.000058
vt 0.062939 0.999942
vt -0.000439 0.999942
vt -0.000759 0.000548
vt 0.063259 0.000548
vt 0.063259 0.999452
vt -0.000759 0.999452
vt -0.000211 0.000121
vt 0.062711 0.000121
vt 0.062711 0.999879
vt -0.000211 0.999879
vt -0.000093 0.000369
vt 0.062593 0.000369
vt 0.062593 0.999631
vt -0.000093 0.999631
vt -0.000140 -0.000024
vt 0.062640 -0.000024
vt 0.062640 1.000024
vt -0.000140 1.000024
vt -0.000493 0.000968
vt 0.062993 0.000968
vt 0.062993 0.999031
vt -0.000493 0.999031
vt -0.000734 0.000107
vt 0.063234 0.000107
vt 0.063234 0.999893
vt -0.000734 0.999893
vt -0.000030 -0.000003
vt 0.062530 -0.000003
vt 0.062530 1.000003
vt -0.000030 1.000003
vt -0.000243 -0.000255
vt 0.062743 -0.000255
vt 0.062743 1.000255
vt -0.000243 1.000255
vt 0.000082 0.000529
vt 0.062418 0.000529
vt 0.062418 0.999471
vt 0.000082 0.999471
vt -0.000664 0.001320
vt 0.063164 0.001320
vt 0.063164 0.998680
vt -0.000664 0.998680
vt 0.000818 0.001280
vt 0.061682 0.001280
vt 0.061682 0.998720
vt 0.000818 0.998720
vt -0.000657 0.000267
vt 0.063157 0.000267
vt 0.063157 0.999733
vt -0.000658 0.999733
vt 0.000709 0.001231
vt 0.061791 0.001231
vt 0.061791 0.998769
vt 0.000709 0.998769
vt -0.000172 0.001886
vt 0.062672 0.001886
vt 0.062672 0.998114
vt -0.000172 0.998114
vt 0.000978 0.001090
vt 0.061522 0.001090
vt 0.061522 0.998910
vt 0.000978 0.998910
vt -0.000667 0.000453
vt 0.063167 0.000453
vt 0.063167 0.999547
vt -0.000667 0.999547
vt 0.000935 0.000564
vt 0.061565 0.000564
vt 0.061565 0.999436
vt 0.000935 0.999436
vt -0.000497 0.000383
vt 0.062997 0.000383
vt 0.062997 0.999617
vt -0.000497 0.999617
vt 0.000170 0.000455
vt 0.062330 0.000455
vt 0.062330 0.999545
vt 0.000170 0.999545
vn 0.000000 -1.000000 -0.000000
vn 0.000000 0.000000 -1.000000
vn 1.000000 0.000000 0.000000
vn -0.000000 -0.000000 1.000000
vn -1.000000 -0.000000 -0.000000
vn 0.000000 1.000000 -0.000000
vn -0.098000 0.000000 0.995200
vn 0.098000 0.000000 0.995200
vn -0.290300 0.000000 0.956900
vn 0.290300 0.000000 0.956900
vn -0.471400 0.000000 0.881900
vn 0.471400 0.000000 0.881900
vn -0.634400 0.000000 0.773000
vn 0.634400 0.000000 0.773000
vn -0.773000 0.000000 0.634400
vn 0.773000 0.000000 0.634400
vn -0.881900 0.000000 0.471400
vn 0.881900 0.000000 0.471400
vn -0.956900 0.000000 0.290300
vn 0.956900 0.000000 0.290300
vn -0.995200 0.000000 0.098000
vn 0.995200 0.000000 0.098000
vn -0.995200 0.000000 -0.098000
vn 0.995200 0.000000 -0.098000
vn -0.956900 0.000000 -0.290300
vn 0.956900 0.000000 -0.290300
vn -0.881900 0.000000 -0.471400
vn 0.881900 0.000000 -0.471400
vn -0.773000 0.000000 -0.634400
vn 0.773000 0.000000 -0.634400
vn -0.634400 0.000000 -0.773000
vn 0.634400 0.000000 -0.773000
vn -0.471400 0.000000 -0.881900
vn 0.471400 0.000000 -0.881900
vn -0.290300 0.000000 -0.956900
vn 0.290300 0.000000 -0.956900
vn -0.098000 0.000000 -0.995200
vn 0.098000 0.000000 -0.995200
usemtl Material
s off
f 1/1/1 2/2/1 3/3/1 4/4/1 5/5/1 6/6/1 7/7/1 8/8/1 9/9/1 10/10/1 11/11/1 12/12/1 13/13/1 14/14/1 15/15/1 16/16/1 17/17/1 18/18/1 19/19/1 20/20/1
f 21/21/1 1/1/1 20/20/1 22/22/1 23/23/1 24/24/1 25/25/1 26/26/1 27/27/1 28/28/1 29/29/1 30/30/1 31/31/1 32/32/1 33/33/1 34/34/1 35/35/1 36/36/1 4/4/1 3/3/1
f 37/37/2 21/38/2 3/39/2 38/40/2
f 21/41/3 37/42/3 39/43/3 1/44/3
f 1/43/4 39/44/4 40/41/4 2/42/4
f 2/1/5 40/2/5 38/3/5 3/21/5
f 39/45/6 41/46/6 42/47/6 43/48/6 44/49/6 45/50/6 46/51/6 47/52/6 48/53/6 49/54/6 50/55/6 51/56/6 52/57/6 53/58/6 54/59/6 55/60/6 56/61/6 57/62/6 38/63/6 40/64/6
f 37/65/6 38/63/6 57/62/6 58/66/6 59/67/6 60/68/6 61/69/6 62/70/6 63/71/6 64/72/6 65/73/6 66/74/6 67/75/6 68/76/6 69/77/6 70/78/6 71/79/6 72/80/6 41/46/6 39/45/6
f 29/81/7 28/82/7 58/83/7 57/84/7
f 30/85/8 29/86/8 57/87/8 56/88/8
f 28/89/9 27/90/9 59/91/9 58/92/9
f 31/93/10 30/94/10 56/95/10 55/96/10
f 27/97/11 26/98/11 60/99/11 59/100/11
f 32/101/12 31/102/12 55/103/12 54/104/12
f 26/105/13 25/106/13 61/107/13 60/108/13
f 33/109/14 32/110/14 54/111/14 53/112/14
f 25/113/15 24/114/15 62/115/15 61/116/15
f 34/117/16 33/118/16 53/119/16 52/120/16
f 24/121/17 23/122/17 63/123/17 62/124/17
f 35/125/18 34/126/18 52/127/18 51/128/18
f 23/129/19 22/130/19 64/131/19 63/132/19
f 36/89/20 35/90/20 51/91/20 50/92/20
f 22/133/21 20/134/21 65/135/21 64/136/21
f 4/137/22 36/138/22 50/139/22 49/140/22
f 20/141/23 19/142/23 66/143/23 65/144/23
f 5/145/24 4/146/24 49/147/24 48/148/24
f 19/149/25 18/150/25 67/151/25 66/152/25
f 6/153/26 5/154/26 48/155/26 47/156/26
f 18/157/27 17/158/27 68/159/27 67/160/27
f 7/161/28 6/162/28 47/163/28 46/164/28
f 17/165/29 16/166/29 69/167/29 68/168/29
f 8/169/30 7/170/30 46/171/30 45/172/30
f 16/173/31 15/174/31 70/175/31 69/176/31
f 9/177/32 8/178/32 45/179/32 44/180/32
f 15/181/33 14/182/33 71/183/33 70/184/33
f 10/185/34 9/186/34 44/187/34 43/188/34
f 14/189/35 13/190/35 72/191/35 71/192/35
f 11/193/36 10/194/36 43/195/36 42/196/36
f 13/197/37 12/198/37 41/199/37 72/200/37
f 12/201/38 11/202/38 42/203/38 41/204/38
